{"title":"The Cape (2011) Complete Season 1 -BoB 480p h264 MP4","uid":11741538,"size":1505153048,"categoryP":"video","categoryS":"tv_shows","magnet":"?xt=urn:btih:b18539912a3ce9b48aa44aa114b4928bc9db0a79&amp;dn=The+Cape+%282011%29+Complete+Season+1+-BoB+480p+h264+MP4&amp;tr=udp%3A%2F%2Ftracker.openbittorrent.com%3A80&amp;tr=udp%3A%2F%2Fopen.demonii.com%3A1337&amp;tr=udp%3A%2F%2Ftracker.coppersurfer.tk%3A6969&amp;tr=udp%3A%2F%2Fexodus.desync.com%3A6969","seeders":8,"leechers":2,"uploader":"CowboyUncensored","files":15,"time":1425838052,"description":"The Cape (2011) Complete Season 1 -BoB 480p h264 MP4\n\nh264 2-pass at 440 kbps video + audio is HE-AACv2 32 kbps.\n!Reseed requests are always welcome!\n\nMediaInfo's output:\nComplete name                            : C:The Cape (2011)The Cape 1x04 Scales.mp4\nFormat                                   : MPEG-4\nFormat profile                           : Base Media\nCodec ID                                 : isom\nFile size                                : 142 MiB\nDuration                                 : 41mn 42s\nOverall bit rate mode                    : Variable\nOverall bit rate                         : 475 Kbps\nEncoded date                             : UTC 2011-03-12 01:32:51\nTagged date                              : UTC 2011-03-12 01:32:51\nWriting application                      : Yamb 2.1.0.0 [http://yamb.unite-video.com]\n\nVideo\nID                                       : 1\nFormat                                   : AVC\nFormat/Info                              : Advanced Video Codec\nFormat profile                           : &lt;a class=&quot;__cf_email__&quot; href=&quot;/cdn-cgi/l/email-protection&quot; data-cfemail=&quot;94dcfdf3fcd4d8a0baa5&quot;&gt;[email&amp;#160;protected]&lt;/a&gt;&lt;script cf-hash='f9e31' type=&quot;text/javascript&quot;&gt;\n/* &lt;![CDATA[ */!function(){try{var t=&quot;currentScript&quot;in document?document.currentScript:function(){for(var t=document.getElementsByTagName(&quot;script&quot;),e=t.length;e--;)if(t[e].getAttribute(&quot;cf-hash&quot;))return t[e]}();if(t&amp;&amp;t.previousSibling){var e,r,n,i,c=t.previousSibling,a=c.getAttribute(&quot;data-cfemail&quot;);if(a){for(e=&quot;&quot;,r=parseInt(a.substr(0,2),16),n=2;a.length-n;n+=2)i=parseInt(a.substr(n,2),16)^r,e+=String.fromCharCode(i);e=document.createTextNode(e),c.parentNode.replaceChild(e,c)}}}catch(u){}}();/* ]]&gt; */&lt;/script&gt;\nFormat settings, CABAC                   : Yes\nFormat settings, ReFrames                : 5 frames\nCodec ID                                 : avc1\nCodec ID/Info                            : Advanced Video Coding\nDuration                                 : 41mn 42s\nBit rate                                 : 440 Kbps\nMaximum bit rate                         : 4 070 Kbps\nWidth                                    : 720 pixels\nHeight                                   : 400 pixels\nDisplay aspect ratio                     : 16:9\nFrame rate mode                          : Constant\nFrame rate                               : 23.976 fps\nColor space                              : YUV\nChroma subsampling                       : 4:2:0\nBit depth                                : 8 bits\nScan type                                : Progressive\nBits/(Pixel*Frame)                       : 0.064\nStream size                              : 131 MiB (93%)\nWriting library                          : x264 core 80 r1376 3feaec2\nEncoding settings                        : cabac=1 / ref=5 / deblock=1:0:0 / analyse=0x3:0x133 / me=umh / subme=9 / psy=0 / mixed_ref=1 / me_range=32 / chroma_me=1 / trellis=1 / 8x8dct=1 / cqm=0 / deadzone=21,11 / fast_pskip=1 / chroma_qp_offset=0 / threads=12 / sliced_threads=0 / nr=0 / decimate=1 / mbaff=0 / constrained_intra=0 / bframes=16 / b_pyramid=0 / b_adapt=1 / b_bias=0 / direct=3 / wpredb=1 / wpredp=2 / keyint=250 / keyint_min=25 / scenecut=40 / rc_lookahead=40 / rc=2pass / mbtree=1 / bitrate=440 / ratetol=1.0 / qcomp=0.60 / qpmin=10 / qpmax=51 / qpstep=4 / cplxblur=20.0 / qblur=0.5 / ip_ratio=1.40 / aq=1:1.00\nEncoded date                             : UTC 2011-03-12 01:32:51\nTagged date                              : UTC 2011-03-12 01:33:12\n\nAudio\nID                                       : 2\nFormat                                   : AAC\nFormat/Info                              : Advanced Audio Codec\nFormat profile                           : HE-AACv2 / HE-AAC / LC\nCodec ID                                 : 40\nDuration                                 : 41mn 41s\nBit rate mode                            : Variable\nBit rate                                 : 32.6 Kbps\nMaximum bit rate                         : 36.6 Kbps\nChannel(s)                               : 2 channels / 1 channel / 1 channel\nChannel positions                        : Front: L R / Front: C / Front: C\nSampling rate                            : 48.0 KHz / 48.0 KHz / 24.0 KHz\nCompression mode                         : Lossy\nStream size                              : 9.72 MiB (7%)\nEncoded date                             : UTC 2011-03-12 01:33:07\nTagged date                              : UTC 2011-03-12 01:33:12","torrent":{"xt":"urn:btih:b18539912a3ce9b48aa44aa114b4928bc9db0a79","amp;dn":"The+Cape+%282011%29+Complete+Season+1+-BoB+480p+h264+MP4","amp;tr":["udp%3A%2F%2Ftracker.openbittorrent.com%3A80","udp%3A%2F%2Fopen.demonii.com%3A1337","udp%3A%2F%2Ftracker.coppersurfer.tk%3A6969","udp%3A%2F%2Fexodus.desync.com%3A6969"],"infoHash":"b18539912a3ce9b48aa44aa114b4928bc9db0a79","infoHashBuffer":{"type":"Buffer","data":[177,133,57,145,42,60,233,180,138,164,74,161,20,180,146,139,201,219,10,121]},"announce":[],"urlList":[]}}